<svg width="154" height="44" viewBox="0 0 154 44" fill="none" xmlns="http://www.w3.org/2000/svg">
<g filter="url(#filter0_d)">
<rect x="4" width="146" height="36" rx="6" fill="white"/>
<path d="M23.32 11.784C21.288 11.784 19.848 12.968 19.848 14.664C19.848 16.376 20.968 17.192 23.112 17.848C24.984 18.424 25.496 18.904 25.496 19.976C25.496 21.304 24.424 21.944 23.128 21.944C21.928 21.944 21.064 21.512 20.248 20.824L19.4 21.768C20.312 22.664 21.56 23.192 23.144 23.192C25.624 23.192 27.08 21.848 27.08 19.928C27.08 17.816 25.576 17.128 23.816 16.584C21.832 15.976 21.4 15.528 21.4 14.6C21.4 13.544 22.28 13.032 23.384 13.032C24.296 13.032 25.064 13.32 25.896 13.992L26.728 13.064C25.8 12.232 24.84 11.784 23.32 11.784ZM33.2068 14.376C32.1508 14.376 31.3188 14.904 30.7108 15.736V11.032L29.2388 11.192V23H30.7108V17C31.2708 16.12 31.9268 15.528 32.8388 15.528C33.6388 15.528 34.1828 15.896 34.1828 17.16V23H35.6548V16.952C35.6548 15.368 34.7428 14.376 33.2068 14.376ZM41.7818 14.376C39.3818 14.376 38.0058 16.184 38.0058 18.792C38.0058 21.464 39.3658 23.192 41.7658 23.192C44.1498 23.192 45.5258 21.384 45.5258 18.776C45.5258 16.104 44.1818 14.376 41.7818 14.376ZM41.7818 15.56C43.1738 15.56 43.9418 16.584 43.9418 18.776C43.9418 20.984 43.1738 22.008 41.7658 22.008C40.3578 22.008 39.5898 20.984 39.5898 18.792C39.5898 16.584 40.3738 15.56 41.7818 15.56ZM57.4333 14.568H56.0253L54.4893 21.976L52.9053 14.568H51.2573L49.5933 21.976L48.0733 14.568H46.6013L48.5693 23H50.5213L52.0413 15.896L53.5133 23H55.5133L57.4333 14.568ZM69.1844 21.032V17.176C69.1844 15.416 68.2564 14.376 66.2244 14.376C65.2804 14.376 64.3524 14.568 63.3124 14.952L63.6804 16.024C64.5444 15.736 65.3284 15.576 65.9524 15.576C67.1204 15.576 67.7124 16.024 67.7124 17.24V17.864H66.4164C64.0644 17.864 62.7044 18.84 62.7044 20.648C62.7044 22.152 63.7124 23.192 65.3924 23.192C66.4164 23.192 67.3124 22.808 67.9044 21.928C68.1604 22.76 68.7044 23.096 69.5524 23.192L69.8884 22.168C69.4564 22.008 69.1844 21.768 69.1844 21.032ZM65.7284 22.088C64.7684 22.088 64.2724 21.56 64.2724 20.568C64.2724 19.416 65.0564 18.84 66.6084 18.84H67.7124V20.776C67.2324 21.656 66.5924 22.088 65.7284 22.088ZM73.8875 23.192C74.3195 23.192 74.7355 23.08 75.0555 22.904L74.6715 21.88C74.5115 21.944 74.3355 21.976 74.1275 21.976C73.7435 21.976 73.5995 21.752 73.5995 21.304V11L72.1275 11.176V21.336C72.1275 22.536 72.8155 23.192 73.8875 23.192ZM78.575 23.192C79.007 23.192 79.423 23.08 79.743 22.904L79.359 21.88C79.199 21.944 79.023 21.976 78.815 21.976C78.431 21.976 78.287 21.752 78.287 21.304V11L76.815 11.176V21.336C76.815 22.536 77.503 23.192 78.575 23.192ZM89.6889 14.376C88.7289 14.376 87.8169 14.84 87.1929 15.704L87.0809 14.568H85.8169V26.408L87.2889 26.232V22.232C87.8329 22.888 88.5849 23.192 89.4969 23.192C91.6729 23.192 92.8089 21.336 92.8089 18.776C92.8089 16.12 91.9289 14.376 89.6889 14.376ZM89.1449 21.992C88.3769 21.992 87.7209 21.624 87.2889 20.968V16.856C87.7369 16.184 88.4249 15.544 89.3209 15.544C90.5849 15.544 91.2249 16.584 91.2249 18.776C91.2249 20.984 90.4889 21.992 89.1449 21.992ZM99.2849 14.376C98.2289 14.376 97.3969 14.904 96.7889 15.736V11.032L95.3169 11.192V23H96.7889V17C97.3489 16.12 98.0049 15.528 98.9169 15.528C99.7169 15.528 100.261 15.896 100.261 17.16V23H101.733V16.952C101.733 15.368 100.821 14.376 99.2849 14.376ZM107.86 14.376C105.46 14.376 104.084 16.184 104.084 18.792C104.084 21.464 105.444 23.192 107.844 23.192C110.228 23.192 111.604 21.384 111.604 18.776C111.604 16.104 110.26 14.376 107.86 14.376ZM107.86 15.56C109.252 15.56 110.02 16.584 110.02 18.776C110.02 20.984 109.252 22.008 107.844 22.008C106.436 22.008 105.668 20.984 105.668 18.792C105.668 16.584 106.452 15.56 107.86 15.56ZM117.732 21.608C117.316 21.864 116.98 21.976 116.612 21.976C115.876 21.976 115.604 21.576 115.604 20.728V15.704H117.444L117.604 14.568H115.604V12.488L114.132 12.664V14.568H112.66V15.704H114.132V20.792C114.132 22.36 114.98 23.192 116.404 23.192C117.124 23.192 117.732 23 118.292 22.616L117.732 21.608ZM122.829 14.376C120.429 14.376 119.053 16.184 119.053 18.792C119.053 21.464 120.413 23.192 122.813 23.192C125.197 23.192 126.573 21.384 126.573 18.776C126.573 16.104 125.229 14.376 122.829 14.376ZM122.829 15.56C124.221 15.56 124.989 16.584 124.989 18.776C124.989 20.984 124.221 22.008 122.813 22.008C121.405 22.008 120.637 20.984 120.637 18.792C120.637 16.584 121.421 15.56 122.829 15.56ZM131.292 14.376C129.548 14.376 128.252 15.352 128.252 16.696C128.252 17.88 128.972 18.664 130.796 19.144C132.428 19.576 132.844 19.896 132.844 20.728C132.844 21.528 132.14 22.008 131.036 22.008C130.124 22.008 129.34 21.704 128.668 21.192L127.884 22.088C128.62 22.728 129.644 23.192 131.068 23.192C132.78 23.192 134.396 22.392 134.396 20.632C134.396 19.16 133.372 18.456 131.596 18.008C130.236 17.656 129.788 17.336 129.788 16.648C129.788 15.976 130.38 15.544 131.34 15.544C132.124 15.544 132.78 15.784 133.532 16.264L134.156 15.336C133.356 14.728 132.476 14.376 131.292 14.376Z" fill="#242526"/>
</g>
<defs>
<filter id="filter0_d" x="0" y="0" width="154" height="44" filterUnits="userSpaceOnUse" color-interpolation-filters="sRGB">
<feFlood flood-opacity="0" result="BackgroundImageFix"/>
<feColorMatrix in="SourceAlpha" type="matrix" values="0 0 0 0 0 0 0 0 0 0 0 0 0 0 0 0 0 0 127 0"/>
<feOffset dy="4"/>
<feGaussianBlur stdDeviation="2"/>
<feColorMatrix type="matrix" values="0 0 0 0 0 0 0 0 0 0 0 0 0 0 0 0 0 0 0.1 0"/>
<feBlend mode="normal" in2="BackgroundImageFix" result="effect1_dropShadow"/>
<feBlend mode="normal" in="SourceGraphic" in2="effect1_dropShadow" result="shape"/>
</filter>
</defs>
</svg>
