<svg width="24" height="24" viewBox="0 0 24 24" fill="none" xmlns="http://www.w3.org/2000/svg">
<path d="M9 9L8 9C7.44772 9 7 9.44772 7 10L7 18C7 18.5523 7.44771 19 8 19L16 19C16.5523 19 17 18.5523 17 18L17 10C17 9.44772 16.5523 9 16 9L15 9" stroke="#242526" stroke-linecap="round"/>
<path d="M12.3536 2.64645C12.1583 2.45118 11.8417 2.45118 11.6464 2.64645L8.46447 5.82843C8.2692 6.02369 8.2692 6.34027 8.46447 6.53553C8.65973 6.7308 8.97631 6.7308 9.17157 6.53553L12 3.70711L14.8284 6.53553C15.0237 6.7308 15.3403 6.7308 15.5355 6.53553C15.7308 6.34027 15.7308 6.02369 15.5355 5.82843L12.3536 2.64645ZM12.5 14L12.5 3L11.5 3L11.5 14L12.5 14Z" fill="#242526"/>
</svg>
