<svg width="19" height="21" viewBox="0 0 19 21" fill="none" xmlns="http://www.w3.org/2000/svg">
<path d="M0.859375 17.9733L0.926599 18.1665C0.918196 18.1455 0.892987 18.0783 0.859375 17.9733ZM3.58614 13.5659C3.70799 12.5197 4.11973 11.9358 4.89281 11.3349C6.002 10.5241 7.38426 10.982 7.38426 10.982V8.25518C7.72038 8.24678 8.0565 8.2678 8.38845 8.31821V11.8265C8.38845 11.8265 7.00619 11.3685 5.89696 12.1794C5.1239 12.7802 4.71215 13.3643 4.5903 14.4104C4.58609 14.9776 4.68693 15.7213 5.1575 16.3599C5.03985 16.2968 4.92221 16.2254 4.80038 16.1456C3.771 15.4229 3.58194 14.3347 3.58614 13.5659ZM14.1067 3.21339C13.3462 2.34368 13.0563 1.46136 12.9513 0.84375H13.9093C13.9093 0.84375 13.7201 2.46553 15.1108 4.05789L15.1318 4.0789C14.7537 3.83521 14.4092 3.54111 14.1067 3.21339ZM18.7241 5.68387V9.12069C18.7241 9.12069 17.5015 9.07027 16.5939 8.83079C15.3293 8.49468 14.5185 7.97789 14.5185 7.97789C14.5185 7.97789 13.9554 7.60815 13.9134 7.58294V14.6835C13.9134 15.0785 13.8084 16.0657 13.4933 16.8892C13.0815 17.9648 12.4429 18.675 12.3252 18.8177C12.3252 18.8177 11.548 19.7757 10.1825 20.4185C8.95152 20.9983 7.86747 20.9857 7.54398 20.9983C7.54398 20.9983 5.67429 21.0739 3.98948 19.9354C3.62396 19.6833 3.28363 19.3976 2.97272 19.0825L2.98112 19.0908C4.66593 20.2336 6.53563 20.1539 6.53563 20.1539C6.85911 20.1412 7.94316 20.1539 9.17416 19.574C10.5396 18.9312 11.3169 17.9733 11.3169 17.9733C11.4345 17.8304 12.0731 17.1203 12.4849 16.0448C12.8001 15.2213 12.9051 14.2339 12.9051 13.839V6.74265C12.9513 6.76786 13.5101 7.13759 13.5101 7.13759C13.5101 7.13759 14.321 7.65438 15.5856 7.9905C16.4931 8.22997 17.7158 8.28039 17.7158 8.28039V5.58724C18.1359 5.68387 18.493 5.70908 18.7241 5.68387Z" fill="#DCDADC"/>
<path d="M17.7145 5.58303V8.2762C17.7145 8.2762 16.4919 8.22578 15.5843 7.98629C14.3197 7.65017 13.5089 7.13339 13.5089 7.13339C13.5089 7.13339 12.9458 6.76366 12.9038 6.73845V13.839C12.9038 14.2339 12.7988 15.2213 12.4837 16.0448C12.0719 17.1203 11.4333 17.8304 11.3156 17.9733C11.3156 17.9733 10.5384 18.9312 9.17292 19.574C7.94192 20.1539 6.85786 20.1412 6.53438 20.1539C6.53438 20.1539 4.66468 20.2294 2.97989 19.0908L2.97149 19.0825C2.79503 18.9018 2.62697 18.7127 2.47151 18.5152C1.93371 17.8304 1.606 17.0237 1.52197 16.7927V16.7884C1.38752 16.3893 1.11022 15.4229 1.14804 14.4944C1.21527 12.8516 1.76986 11.8391 1.91691 11.587C2.30345 10.898 2.81183 10.2803 3.40844 9.76351C3.93783 9.31815 4.53864 8.96103 5.18147 8.71314C5.87892 8.41904 6.62675 8.26359 7.38302 8.25098V10.9778C7.38302 10.9778 6.00076 10.5198 4.89157 11.3307C4.11849 11.9315 3.70674 12.5155 3.58489 13.5616C3.5807 14.3305 3.76976 15.4188 4.80333 16.1456C4.92518 16.2254 5.04282 16.2968 5.16046 16.3599C5.34113 16.6035 5.5596 16.8178 5.81169 16.9944C6.82425 17.6623 7.66872 17.7085 8.75277 17.2758C9.47543 16.9859 10.0174 16.3346 10.2695 15.6078C10.4292 15.154 10.4249 14.7003 10.4249 14.2297V0.84375H12.9458C13.0509 1.46136 13.3366 2.34368 14.1012 3.21339C14.4079 3.54111 14.7525 3.83521 15.1264 4.0789C15.2357 4.20074 15.8028 4.78895 16.5339 5.15448C16.9078 5.34354 17.307 5.48639 17.7145 5.58303Z" fill="#242526"/>
<path d="M0.519531 15.9609L0.582547 16.1416C0.574144 16.1207 0.548935 16.0576 0.519531 15.9609Z" fill="#69C9D0"/>
<path d="M5.18244 8.71792C4.53542 8.9658 3.9388 9.32294 3.40942 9.7683C2.8086 10.2851 2.30442 10.9069 1.91789 11.5959C1.77084 11.848 1.21624 12.8564 1.14901 14.5033C1.1112 15.4361 1.39271 16.3983 1.52295 16.7974V16.8016C1.60698 17.0285 1.93469 17.8394 2.47248 18.5243C2.62793 18.7216 2.79599 18.9108 2.97247 19.0914C2.40106 18.6965 1.89689 18.2218 1.46413 17.6797C0.930542 17.0033 0.602812 16.2007 0.518783 15.9655V15.9571C0.384348 15.558 0.102841 14.5917 0.144856 13.6589C0.21208 12.0161 0.766677 11.0035 0.913736 10.7514C1.30026 10.0624 1.80444 9.44058 2.40526 8.9238C2.93465 8.47844 3.53547 8.12131 4.17829 7.87343C4.58163 7.70537 5.00178 7.58352 5.43033 7.5037C6.07743 7.39025 6.73703 7.38185 7.3883 7.47428V8.25576C6.62773 8.26837 5.8799 8.42382 5.18245 8.71792H5.18244Z" fill="#DCDADC"/>
<path d="M12.9514 0.844493H10.4305V14.2305C10.4305 14.701 10.4305 15.1548 10.275 15.6085C10.0187 16.3312 9.47677 16.9866 8.75829 17.2765C7.67437 17.7135 6.8256 17.663 5.81724 16.9951C5.56515 16.8227 5.34667 16.6086 5.16602 16.3648C6.02731 16.8227 6.79615 16.8144 7.74993 16.432C8.47258 16.1422 9.01454 15.4867 9.26663 14.7641C9.42636 14.3103 9.42219 13.8566 9.42219 13.386V0H12.9052C12.901 0 12.8631 0.331911 12.9514 0.844493ZM17.7159 4.84012V5.58378C17.3084 5.48714 16.9092 5.3443 16.5353 5.15523C15.8085 4.7939 15.2412 4.20149 15.1277 4.07964C15.258 4.16367 15.3883 4.2393 15.5269 4.31073C16.4176 4.75188 17.2874 4.88633 17.7159 4.84012Z" fill="#DCDADC"/>
</svg>
