<svg width="25" height="17" viewBox="0 0 25 17" fill="none" xmlns="http://www.w3.org/2000/svg">
<path fill-rule="evenodd" clip-rule="evenodd" d="M9.62207 12.0892V4.91382L15.9451 8.50164L9.62207 12.0892ZM23.6867 2.65436C23.4085 1.60941 22.5887 0.786554 21.5479 0.507288C19.6613 -0.000244141 12.0962 -0.000244141 12.0962 -0.000244141C12.0962 -0.000244141 4.53097 -0.000244141 2.64438 0.507288C1.60357 0.786554 0.783776 1.60941 0.505564 2.65436C0 4.54822 0 8.49976 0 8.49976C0 8.49976 0 12.4512 0.505564 14.3452C0.783776 15.3901 1.60357 16.213 2.64438 16.4924C4.53097 16.9998 12.0962 16.9998 12.0962 16.9998C12.0962 16.9998 19.6613 16.9998 21.5479 16.4924C22.5887 16.213 23.4085 15.3901 23.6867 14.3452C24.1923 12.4512 24.1923 8.49976 24.1923 8.49976C24.1923 8.49976 24.1923 4.54822 23.6867 2.65436Z" fill="#DCDADC"/>
</svg>
